<?xml version="1.0" encoding="utf-8"?>
<!-- Generator: Adobe Illustrator 23.0.2, SVG Export Plug-In . SVG Version: 6.00 Build 0)  -->
<svg version="1.1" id="Layer_1" xmlns="http://www.w3.org/2000/svg" xmlns:xlink="http://www.w3.org/1999/xlink" x="0px" y="0px"
	 viewBox="0 0 1080 1080" enable-background="new 0 0 1080 1080" xml:space="preserve">
<rect x="28" y="28" display="none" fill="#FFBF00" width="1024" height="1024"/>
<g display="none">
	<g display="inline">
		<path d="M393.55,876.76c-0.31-0.25-0.59-0.63-0.95-0.74c-9.99-2.89-13.88-7.54-14.43-17.98c-0.45-8.54-0.29-17.11-0.84-25.63
			c-0.58-8.98-3.57-12.38-12.54-13.22c-9.49-0.88-19.07-0.79-28.61-1.07c-24.5-0.73-49.05-0.83-73.5-2.31
			c-22.5-1.36-40.77-17.96-45.02-39.29c-2.21-11.12-0.44-21.84,4.3-32.08c27.99-60.48,55.94-120.98,84.05-181.4
			c12.61-27.11,25.67-54.02,38.32-81.12c9.87-21.16,26.69-31.25,49.58-31.5c24.11-0.26,48.22-0.06,72.33-0.07
			c1.13,0,2.26-0.1,3.69-0.16c2.22-17.79,5.59-35.55-5.78-51.71c-1.8-2.55-3.68-5.17-5.99-7.22c-12.95-11.51-22.63-25.57-31.9-40
			c-5.01-7.79-9.81-15.81-15.69-22.92c-4.08-4.94-9.85-8.48-14.81-12.72c-7.45-6.37-15.68-12.06-22.09-19.35
			c-13.15-14.94-13.87-31.88-3.65-48.98c3.19-5.34,6.7-10.61,8.94-16.36c3.63-9.32,0.59-18.89-0.44-28.32
			c-4.69-42.93-3.04-85.19,13.9-125.66c18.81-44.93,53.04-69.24,101.16-74.46c7.79-0.85,15.63-1.18,23.44-1.8
			c1.09-0.09,2.16-0.46,3.24-0.7c15.7,0,31.39,0,47.09,0c7.15,0.85,14.3,1.69,21.45,2.54c28.47,3.42,54.75,12.34,76.77,31.4
			c23.21,20.08,35.89,46.04,41.28,75.84c4.16,23.03,3.4,46.28,3.01,69.54c-0.28,16.52-0.18,33.07,0.58,49.56
			c0.21,4.51,2.72,9.33,5.34,13.23c16.74,24.9,9.48,56.67-17.12,70.74c-10.04,5.31-17.98,12.39-24.62,21.3
			c-14.31,19.22-28.6,38.45-42.93,57.65c-2.64,3.54-5.28,7.11-8.21,10.4c-5.46,6.13-8.54,13.45-10.91,21.1
			c-0.98,3.15-2.54,4.29-5.79,3.99c-3.24-0.3-6.53-0.07-10.27-0.07c0-2.58,0-4.92,0-7.55c-33.64,0-66.82,0-100.37,0
			c-0.09,1.17-0.26,2.39-0.26,3.62c-0.02,8.42-0.27,16.85,0.08,25.25c0.22,5.2,1.57,10.35,1.98,15.56c0.23,2.92,0.73,6.94-0.85,8.72
			c-11.46,12.91-15,27.89-12.76,44.54c0.56,4.14-0.57,6.12-4.88,6.23c-2.12,0.06-4.22,0.64-6.33,1
			c-14.19,2.42-21.41,10.95-21.65,25.48c-0.19,11.62,4.4,21.12,13.13,28.49c3.4,2.87,4.71,5.71,3.3,10
			c-4.93,15.04-0.82,27.7,10.45,38.36c3.23,3.05,4.37,6.89,2.97,10.93c-2.4,6.92-1.24,13.46,1.06,20.04
			c0.56,1.61,0.97,3.28,1.4,4.93c0.9,3.46,0.14,5.73-3.6,7.35c-10.89,4.7-16.7,12.89-16.07,25.16c0.2,3.83-0.27,7.7-0.2,11.54
			c0.21,10.93,6.91,17.58,17.74,17.59c65.07,0.02,130.14,0.01,195.21,0c9.63,0,14.56-4.49,15.16-14.11
			c0.28-4.54-0.03-9.12-0.03-13.68c0-3.71-0.15-7.43,0.12-11.12c0.64-8.68,9.01-12.92,16.53-8.33c0.87,0.53,1.27,2.32,1.35,3.56
			c0.71,10.95,1.29,21.92,1.94,32.87c0.11,1.81,0.38,3.61,0.63,5.89c5.47-1.71,10.57-3.02,15.44-4.92
			c5.84-2.27,6.72-4.19,4.77-10.26c-3.88-12.06-8.04-24.03-12.03-36.06c-3.23-9.72-6.67-19.39-9.48-29.23
			c-2.03-7.12-6.19-11.78-13.12-13.92c-3.58-1.11-4.62-2.66-3.29-6.5c4.1-11.88,3.31-23.86-0.49-35.68
			c-0.58-1.79-1.79-3.78-3.3-4.81c-5.55-3.79-7.11-9.29-7.61-15.47c-0.41-5.11-0.7-10.27-1.61-15.3c-0.83-4.58-2.54-8.99-3.59-13.54
			c-0.36-1.56-0.53-4.25,0.31-4.84c9.98-6.98,12.05-17.51,13.29-28.47c1.08-9.45,4.7-17.37,12.41-23.5
			c2.43-1.93,3.68-5.65,4.84-8.78c1.81-4.89,3.09-9.98,4.74-15.48c11.88,11.71,22.25,23.53,29.62,38.27
			c37.26,74.55,75.13,148.79,112.74,223.16c9.4,18.59,10.77,37.39,0.29,56.04c-7.33,13.04-18.69,21.44-32.81,25.85
			c-30.18,9.42-60.46,18.52-90.67,27.82c-3.53,1.09-7.06,2.3-10.38,3.9c-9.12,4.41-12.9,11.37-12.08,21.5
			c0.33,4.11,1.06,8.27,0.71,12.33c-0.69,8.05-4.42,11.97-12.17,14c-1.22,0.32-2.41,0.72-3.61,1.09
			C656.12,876.76,431.22,876.76,393.55,876.76z M591,137.85c-2.95,2.02-5.56,3.75-8.11,5.57c-10.15,7.22-21.27,12.59-33.6,14.06
			c-18.51,2.22-37.11,3.9-55.72,4.92c-17.65,0.96-35.37,0.37-53.03,1.2c-18.51,0.87-28.77,10.79-29.91,29.19
			c-0.85,13.77-0.9,27.66-0.25,41.45c1.65,35.52,9.51,69.66,24.53,102.02c20.65,44.49,55.29,68.27,104.48,70.55
			c35.83,1.66,66.08-10.38,90.1-37.1c30.56-33.99,48.14-73.56,51.03-119.52c0.7-11.17-3.44-18.37-12.44-24.65
			c-12.35-8.62-24.45-17.82-35.5-28.04C614.59,180.86,601.48,160.46,591,137.85z M617.5,762.12c0.13,0.61,0.27,1.22,0.4,1.83
			c-1.38,1.1-2.62,2.45-4.15,3.26c-3.14,1.67-6.37,3.18-9.66,4.54c-9.72,4.05-19.54,7.89-29.19,12.1c-1.34,0.59-2.84,2.84-2.76,4.24
			c0.15,2.63,2.35,3.13,4.82,2.52c8.15-2.03,16.31-4.01,24.47-5.97c5.67-1.37,11.36-2.71,17.05-4c2.72-0.62,4.48,0.7,5.19,3.22
			c0.69,2.47-0.01,4.53-2.6,5.57c-2.11,0.85-4.18,1.82-6.35,2.51c-11.8,3.75-23.65,7.36-35.44,11.17c-3.37,1.09-6.87,2.27-9.74,4.23
			c-1.4,0.96-1.94,3.81-1.95,5.81c0,0.69,2.79,1.98,4.29,1.96c2.52-0.02,5.06-0.74,7.53-1.39c14.31-3.79,28.59-7.69,42.92-11.44
			c2.7-0.71,6.22-1.77,7.52,1.68c1.42,3.77-2.48,4.78-4.85,5.78c-10.1,4.25-20.36,8.13-30.52,12.24
			c-6.06,2.45-12.11,4.97-18.03,7.75c-0.95,0.44-1.95,2.72-1.58,3.57c0.59,1.37,2.15,2.82,3.57,3.19c1.5,0.39,3.37-0.28,4.98-0.79
			c11.65-3.75,23.25-7.7,34.94-11.34c4.6-1.43,9.35-2.51,14.11-3.2c1.25-0.18,3.62,1.49,3.98,2.74c0.36,1.24-0.83,3.36-1.96,4.49
			c-1.13,1.13-2.98,1.6-4.58,2.18c-7.23,2.61-14.52,5.06-21.73,7.74c-5.46,2.03-10.87,4.24-16.22,6.55
			c-2.49,1.07-3.81,2.97-2.61,5.86c1.15,2.76,3.21,2.17,5.38,1.6c3.03-0.79,6.12-1.37,9.15-2.13c24.31-6.08,48.77-11.59,72.85-18.46
			c18.37-5.24,30.95-25.82,27.68-44.74c-1.77-10.26-5.35-20.34-9.22-30.06c-6.75-16.94-21.65-23.9-39.2-19.29
			c-10.47,2.75-20.94,5.47-31.41,8.23c-8.4,2.21-16.84,4.3-25.15,6.83c-1.6,0.49-2.67,2.74-3.98,4.17c1.5,1.26,2.83,3.06,4.56,3.65
			c1.93,0.65,4.24,0.06,6.37,0.26C610.09,761.12,613.79,761.66,617.5,762.12z M487.57,794.71c0-0.05,0-0.1,0-0.14
			c14.55,0,29.1,0.21,43.63-0.11c5.2-0.12,10.4-1.38,15.55-2.4c2.97-0.58,3.83-3.26,3.1-5.65c-0.41-1.34-2.54-2.39-4.12-3.05
			c-1.24-0.52-2.8-0.31-4.23-0.34c-19.37-0.44-38.75-0.84-58.12-1.35c-1.43-0.04-3.35-0.38-4.17-1.34
			c-3.17-3.72-0.73-10.53,4.09-11.75c9.38-2.38,18.78-4.7,28.19-6.97c2.16-0.52,4.16-1.38,3.34-3.86c-0.51-1.55-2.09-3.62-3.47-3.86
			c-6.56-1.15-13.2-2.28-19.84-2.45c-16.09-0.42-32.19-0.23-48.29-0.41c-13.85-0.15-19.97,5.69-20.14,19.53
			c-0.02,1.56,0.15,3.13,0.26,4.69c0.96,14.12,6.7,19.45,20.99,19.46C458.77,794.72,473.17,794.71,487.57,794.71z M350.85,714.47
			c7.7-1.29,14.56-2.27,21.32-3.73c1.25-0.27,2.83-2.45,2.97-3.87c1.14-11.71,1.98-23.45,2.89-34.95c-6.34-2.39-6.34-2.39-8.72,2.71
			c-2.41,5.15-4.84,10.29-7.22,15.45C358.46,697.91,354.86,705.76,350.85,714.47z M393.49,249.99
			c-8.89,7.57-12.95,18.35-10.52,26.91c2.34,8.24,10.66,15.78,18.96,17.03C399.14,279.37,396.36,264.89,393.49,249.99z
			 M694.22,252.79c-2.29,15.08-4.52,29.72-6.88,45.23c6.98-5.04,12.83-9.77,16.7-16.44C709.56,272.04,705.87,261.01,694.22,252.79z"
			/>
		<path d="M582.67,617.33c-29.37,0-58.74,0-88.11,0c-6.18,0-12.45-0.47-15.32-6.96c-3.17-7.17-3.37-14.76,0.45-21.83
			c2.47-4.57,7.45-5.16,12-5.22c14.68-0.21,29.37-0.12,44.06-0.08c19.82,0.05,39.63,0.25,59.45,0.24
			c25.09-0.01,50.18-0.19,75.27-0.22c2.69,0,5.44,0.22,8.05,0.81c4.67,1.07,8.28,3.91,8.74,8.81c0.48,5.16,0.6,10.54-0.36,15.6
			c-1.08,5.74-6.36,8.78-13.55,8.82c-11.12,0.07-22.24-0.09-33.36-0.1c-19.11-0.02-38.21-0.01-57.32-0.01
			C582.67,617.23,582.67,617.28,582.67,617.33z"/>
		<path d="M567.8,568.62c-29.67,0-59.34-0.02-89.02,0.01c-14.99,0.01-23.07-13.54-15.4-26.65c1.61-2.76,5.62-4.47,8.88-5.78
			c2.38-0.96,5.34-0.62,8.04-0.62c40.22,0.07,80.45,0.21,120.67,0.25c17.97,0.02,35.94-0.21,53.91-0.26
			c15.28-0.04,20.7,6.47,18.08,21.5c-1.27,7.26-5.18,10.96-12.74,11.38c-5.4,0.3-10.83,0.07-16.25,0.07c-25.39,0-50.79,0-76.18,0
			C567.8,568.56,567.8,568.59,567.8,568.62z"/>
		<path d="M578.78,713.08c-28.22,0-56.45,0-84.67,0c-1.28,0-2.57,0.05-3.85-0.02c-10.14-0.59-14.13-4.39-14.79-14.46
			c-0.19-2.96-0.01-6.01,0.53-8.93c1.24-6.65,5.4-10.16,12.57-10.62c4.26-0.27,8.55-0.07,12.82-0.07c53.32,0,106.65,0,159.97,0
			c12.93,0,17.51,4.38,18.06,17.24c0.07,1.56,0.03,3.13-0.04,4.7c-0.33,7.4-4.32,11.96-11.65,12.05
			c-19.39,0.22-38.78,0.05-58.17,0.04c-10.26-0.01-20.52,0-30.78,0C578.78,713.03,578.78,713.05,578.78,713.08z"/>
		<path d="M599.18,664.28c-29.96,0-59.92,0-89.88,0c-14.98,0-20.38-6.56-17.6-21.37c1.23-6.53,4-9.29,10.66-10.39
			c1.96-0.32,3.97-0.47,5.95-0.47c58.64-0.02,117.28-0.02,175.92-0.01c1.71,0,3.42,0.09,5.12,0.24
			c10.88,0.93,12.67,2.82,12.85,13.72c0.04,2.56-0.19,5.13-0.26,7.69c-0.21,7.68-3.11,10.57-10.73,10.59
			c-10.7,0.02-21.4,0.01-32.1,0.01C639.13,664.28,619.15,664.28,599.18,664.28z"/>
		<path d="M603.7,474.48c-25.38,0-50.76-0.02-76.14,0.01c-6.21,0.01-12.45-0.52-15.48-6.81c-3.49-7.24-3.62-15,0.15-22.24
			c2.49-4.78,7.47-6.02,12.44-6.16c7.83-0.22,15.68-0.05,23.52-0.06c42.49-0.04,84.98-0.12,127.47-0.1c3.96,0,7.99,0.31,11.87,1.07
			c4.88,0.96,8.25,4.18,9.05,9.13c0.67,4.17,1.08,8.55,0.56,12.7c-1.03,8.33-6.02,12.28-15.17,12.38
			c-11.83,0.14-23.66-0.06-35.5-0.08c-14.26-0.02-28.52-0.01-42.78-0.01C603.7,474.39,603.7,474.44,603.7,474.48z"/>
		<path d="M587.26,521.86c-24.09,0-48.19,0-72.28,0c-0.86,0-1.71,0.01-2.57,0c-16.23-0.13-24.23-13.93-16.4-28.41
			c3.37-6.24,9.43-6.82,15.54-6.81c7.98,0,15.96,0.37,23.93,0.37c13.68,0,27.37-0.26,41.05-0.24c21.53,0.02,43.05,0.22,64.58,0.24
			c6.55,0.01,13.1-0.23,19.65-0.54c14.64-0.69,20.27,4.84,19.57,19.41c-0.56,11.67-5.04,15.95-16.95,15.97
			C638.01,521.89,612.64,521.86,587.26,521.86z"/>
		<path d="M543.93,371.79c-11.9-0.86-23.23-4.15-32.26-12.92c-1.79-1.74-3.08-4.54-3.47-7.02c-0.29-1.84,0.73-4.82,2.16-5.71
			c1.28-0.8,4.39-0.07,5.85,1.07c6.13,4.76,12.97,7.63,20.52,9.02c12.95,2.39,24.54-0.97,35.18-8.34c2.13-1.47,4.27-3.27,6.92-1.2
			c2.71,2.11,2.85,5.02,1.26,7.68c-1.5,2.5-3.32,5.07-5.61,6.81C565.6,367.89,555.48,371.34,543.93,371.79z"/>
		<path d="M540.96,309.95c4.78,0,9.02,0.06,13.26-0.02c3.75-0.06,4.97,2.07,5,5.4c0.03,3.3-1.15,5.65-4.81,5.71
			c-5.69,0.09-11.39,0.18-17.07-0.06c-5.01-0.21-8.27-3.53-8.33-8.49c-0.13-10.81-0.03-21.63-0.05-32.45
			c-0.01-4.22,2.54-5.22,6.15-5.23c3.75-0.01,5.91,1.3,5.87,5.46C540.89,289.94,540.96,299.61,540.96,309.95z"/>
		<path d="M473.2,260.29c-8.02-0.07-14.25-6.46-14.13-14.49c0.12-7.94,6.7-14.33,14.58-14.15c8.01,0.18,14.16,6.55,14.09,14.61
			C487.66,254.28,481.37,260.36,473.2,260.29z"/>
		<path d="M633.43,246.25c-0.08,8.1-6.28,14.11-14.48,14.03c-8.07-0.08-14.16-6.36-14.05-14.49c0.1-7.98,6.61-14.32,14.51-14.16
			C627.4,231.8,633.51,238.16,633.43,246.25z"/>
	</g>
	<g display="inline">
		<path d="M103.05,1078.09l24.81-127.31h26.72c13.23,0,22.84,2.1,28.82,6.3c3.69,2.55,6.71,6.05,9.07,10.5
			c2.35,4.45,3.53,8.91,3.53,13.36c0,15.91-7.76,26.02-23.29,30.35c12.72,4.07,19.09,12.85,19.09,26.34
			c0,7.25-1.85,14.09-5.54,20.52c-3.69,6.43-8.72,11.29-15.08,14.6c-6.75,3.56-18.13,5.34-34.17,5.34H103.05z M137.79,1020.26
			l-7.06,36.46h12.22c8.78,0,15.17-1.62,19.18-4.87s6.01-8.43,6.01-15.56c0-10.69-7.06-16.03-21.19-16.03H137.79z M147.14,972.16
			l-5.54,29.39h8.4c6.74,0,12.15-1.62,16.22-4.87c4.07-3.24,6.11-7.47,6.11-12.69c0-4.32-1.4-7.38-4.2-9.16
			c-2.8-1.78-7.63-2.67-14.51-2.67H147.14z"/>
		<path d="M274.08,979.41c14.51,0,26.21,4.29,35.12,12.88c8.91,8.59,13.36,19.88,13.36,33.88c0,15.27-5.22,28.06-15.65,38.36
			c-10.44,10.31-23.41,15.46-38.94,15.46c-14.38,0-26.15-4.29-35.31-12.88c-9.16-8.59-13.74-19.69-13.74-33.31
			c0-15.4,5.28-28.31,15.84-38.75C245.32,984.63,258.43,979.41,274.08,979.41z M268.37,1059.96c8.47,0,15.74-3.02,21.81-9.07
			c6.07-6.04,9.36-13.58,9.86-22.62c0.25-2.03,0.38-2.67,0.38-1.91c0-7.76-2.54-14.15-7.61-19.18c-5.07-5.03-11.54-7.54-19.41-7.54
			c-8.88,0-16.42,3.24-22.64,9.73c-6.21,6.49-9.32,14.44-9.32,23.86c0,7.76,2.53,14.16,7.58,19.18
			C254.08,1057.45,260.53,1059.96,268.37,1059.96z"/>
		<path d="M343.57,1078.09l18.71-96.77h22.33l-18.9,96.77H343.57z M368.19,950.78h22.33l-4.01,20.23h-22.14L368.19,950.78z"/>
		<path d="M417.64,1078.09l-8.02-96.77h21.57l3.24,70.43l30.54-70.43h21.95l4.01,70.43l30.54-70.43h22.14l-45.81,96.77h-23.29
			l-4.39-67.19l-29.58,67.19H417.64z"/>
		<path d="M640.4,981.32h22.14l-18.9,96.77h-21.19l1.34-6.3c-9.42,5.47-17.94,8.21-25.58,8.21c-12.34,0-22.75-4.32-31.21-12.98
			c-8.46-8.65-12.69-19.34-12.69-32.07c0-15.4,4.99-28.5,14.98-39.32c9.99-10.81,22.11-16.22,36.36-16.22
			c13.49,0,24.24,4.84,32.26,14.51L640.4,981.32z M632.39,1025.79c0-7.38-2.31-13.58-6.94-18.61c-4.63-5.03-10.37-7.54-17.21-7.54
			c-8.75,0-16.17,3.31-22.26,9.92c-6.09,6.62-9.13,14.7-9.13,24.24c0,7.51,2.38,13.74,7.13,18.71c4.75,4.96,10.81,7.44,18.17,7.44
			c8.49,0,15.66-3.31,21.49-9.92C629.47,1043.42,632.39,1035.34,632.39,1025.79z"/>
		<path d="M703.22,950.78h22.33l-24.81,127.31h-22.14L703.22,950.78z"/>
		<path d="M826.15,981.32h22.14l-18.9,96.77h-21.19l1.34-6.3c-9.42,5.47-17.94,8.21-25.58,8.21c-12.34,0-22.75-4.32-31.21-12.98
			c-8.46-8.65-12.69-19.34-12.69-32.07c0-15.4,4.99-28.5,14.98-39.32c9.99-10.81,22.11-16.22,36.36-16.22
			c13.49,0,24.24,4.84,32.26,14.51L826.15,981.32z M818.13,1025.79c0-7.38-2.31-13.58-6.94-18.61c-4.63-5.03-10.37-7.54-17.21-7.54
			c-8.75,0-16.17,3.31-22.26,9.92c-6.09,6.62-9.13,14.7-9.13,24.24c0,7.51,2.38,13.74,7.13,18.71c4.75,4.96,10.81,7.44,18.17,7.44
			c8.49,0,15.66-3.31,21.49-9.92C815.22,1043.42,818.13,1035.34,818.13,1025.79z"/>
		<path d="M954.81,981.32h22.14l-18.9,96.77h-21.19l1.34-6.3c-9.42,5.47-17.94,8.21-25.58,8.21c-12.34,0-22.75-4.32-31.21-12.98
			c-8.46-8.65-12.69-19.34-12.69-32.07c0-15.4,4.99-28.5,14.98-39.32c9.99-10.81,22.11-16.22,36.36-16.22
			c13.49,0,24.24,4.84,32.26,14.51L954.81,981.32z M946.8,1025.79c0-7.38-2.31-13.58-6.94-18.61c-4.63-5.03-10.37-7.54-17.21-7.54
			c-8.75,0-16.17,3.31-22.26,9.92c-6.09,6.62-9.13,14.7-9.13,24.24c0,7.51,2.38,13.74,7.13,18.71c4.75,4.96,10.81,7.44,18.17,7.44
			c8.49,0,15.66-3.31,21.49-9.92C943.88,1043.42,946.8,1035.34,946.8,1025.79z"/>
	</g>
</g>
<g>
	<path d="M359.6,1080c-0.39-0.31-0.73-0.78-1.17-0.91c-12.31-3.56-17.1-9.29-17.78-22.15c-0.55-10.51-0.35-21.07-1.04-31.58
		c-0.72-11.06-4.4-15.25-15.45-16.28c-11.69-1.08-23.49-0.97-35.24-1.32c-30.19-0.89-60.42-1.02-90.54-2.84
		c-27.71-1.68-50.22-22.13-55.45-48.4c-2.73-13.7-0.54-26.91,5.3-39.52c34.48-74.5,68.91-149.02,103.54-223.45
		c15.54-33.4,31.63-66.54,47.2-99.93c12.16-26.06,32.88-38.49,61.08-38.8c29.7-0.32,59.4-0.07,89.1-0.08c1.39,0,2.78-0.12,4.54-0.2
		c2.74-21.92,6.89-43.8-7.12-63.7c-2.21-3.15-4.53-6.36-7.38-8.9c-15.95-14.17-27.87-31.5-39.29-49.28
		c-6.17-9.6-12.09-19.47-19.32-28.23c-5.03-6.09-12.14-10.45-18.24-15.67c-9.18-7.84-19.31-14.86-27.22-23.84
		c-16.2-18.4-17.09-39.27-4.5-60.33c3.93-6.57,8.25-13.08,11.01-20.15c4.48-11.48,0.73-23.27-0.54-34.89
		c-5.77-52.88-3.74-104.94,17.13-154.79c23.17-55.35,65.34-85.29,124.61-91.72c9.59-1.04,19.25-1.45,28.88-2.21
		c1.34-0.11,2.66-0.56,3.99-0.86c19.34,0,38.67,0,58.01,0c8.81,1.04,17.62,2.08,26.43,3.13c35.07,4.22,67.44,15.2,94.57,38.68
		c28.59,24.74,44.22,56.71,50.85,93.42c5.13,28.36,4.19,57.01,3.71,85.65c-0.34,20.35-0.22,40.73,0.72,61.05
		c0.26,5.55,3.35,11.5,6.57,16.3c20.62,30.67,11.67,69.8-21.09,87.14c-12.37,6.55-22.15,15.26-30.33,26.24
		c-17.63,23.67-35.23,47.37-52.88,71.02c-3.25,4.36-6.5,8.76-10.11,12.82c-6.73,7.55-10.51,16.57-13.44,26
		c-1.2,3.88-3.13,5.29-7.14,4.92c-3.99-0.37-8.05-0.08-12.65-0.08c0-3.17,0-6.06,0-9.3c-41.44,0-82.3,0-123.63,0
		c-0.11,1.44-0.32,2.95-0.32,4.46c-0.03,10.37-0.33,20.75,0.1,31.11c0.27,6.41,1.93,12.75,2.44,19.17c0.29,3.6,0.9,8.54-1.05,10.74
		c-14.12,15.9-18.48,34.35-15.72,54.87c0.69,5.1-0.7,7.53-6.01,7.68c-2.61,0.07-5.2,0.79-7.79,1.23
		c-17.47,2.99-26.37,13.49-26.67,31.38c-0.24,14.31,5.42,26.01,16.18,35.1c4.19,3.54,5.8,7.04,4.07,12.32
		c-6.07,18.53-1.01,34.12,12.88,47.25c3.98,3.76,5.38,8.49,3.66,13.47c-2.95,8.53-1.53,16.58,1.3,24.68
		c0.69,1.98,1.2,4.04,1.73,6.08c1.11,4.27,0.17,7.06-4.43,9.05c-13.42,5.79-20.57,15.87-19.79,30.99c0.24,4.72-0.34,9.48-0.25,14.22
		c0.25,13.47,8.51,21.66,21.85,21.66c80.15,0.02,160.31,0.02,240.46,0c11.86,0,17.93-5.53,18.68-17.38
		c0.35-5.6-0.04-11.24-0.04-16.86c0-4.57-0.18-9.15,0.15-13.7c0.79-10.7,11.1-15.91,20.36-10.26c1.07,0.65,1.57,2.85,1.67,4.38
		c0.88,13.49,1.58,27,2.39,40.5c0.13,2.23,0.47,4.44,0.78,7.26c6.73-2.11,13.02-3.72,19.02-6.06c7.19-2.8,8.27-5.16,5.87-12.64
		c-4.78-14.86-9.9-29.6-14.82-44.41c-3.98-11.98-8.22-23.88-11.68-36.01c-2.5-8.77-7.62-14.51-16.16-17.15
		c-4.41-1.36-5.69-3.28-4.06-8c5.06-14.64,4.08-29.39-0.6-43.95c-0.71-2.21-2.21-4.65-4.07-5.92c-6.84-4.67-8.75-11.45-9.37-19.06
		c-0.51-6.3-0.87-12.65-1.99-18.85c-1.02-5.64-3.13-11.08-4.42-16.68c-0.44-1.92-0.66-5.23,0.38-5.96
		c12.29-8.6,14.84-21.57,16.37-35.07c1.32-11.65,5.79-21.4,15.29-28.95c2.99-2.38,4.54-6.95,5.97-10.81
		c2.23-6.03,3.8-12.3,5.84-19.07c14.63,14.43,27.41,28.98,36.49,47.14c45.9,91.83,92.55,183.28,138.87,274.9
		c11.58,22.9,13.27,46.06,0.35,69.03c-9.03,16.06-23.02,26.41-40.41,31.84c-37.17,11.6-74.47,22.82-111.69,34.26
		c-4.35,1.34-8.7,2.83-12.79,4.8c-11.24,5.43-15.89,14.01-14.88,26.49c0.41,5.06,1.3,10.19,0.87,15.19
		c-0.85,9.92-5.44,14.74-14.99,17.24c-1.5,0.39-2.97,0.89-4.45,1.34C683.04,1080,406.01,1080,359.6,1080z M602.82,169.81
		c-3.64,2.49-6.85,4.62-9.99,6.86c-12.5,8.89-26.19,15.5-41.38,17.32c-22.8,2.73-45.71,4.81-68.63,6.06
		c-21.74,1.19-43.57,0.45-65.32,1.48c-22.81,1.07-35.44,13.29-36.84,35.96c-1.05,16.97-1.1,34.08-0.31,51.06
		c2.03,43.76,11.71,85.81,30.21,125.67c25.44,54.81,68.11,84.09,128.7,86.9c44.14,2.05,81.4-12.78,110.99-45.7
		c37.64-41.87,59.3-90.61,62.86-147.22c0.87-13.76-4.23-22.62-15.33-30.37c-15.21-10.62-30.12-21.95-43.73-34.53
		C631.88,222.79,615.73,197.66,602.82,169.81z M635.47,938.79c0.17,0.75,0.33,1.5,0.5,2.25c-1.69,1.36-3.23,3.01-5.11,4.02
		c-3.86,2.06-7.85,3.91-11.89,5.6c-11.98,4.99-24.06,9.72-35.95,14.91c-1.66,0.72-3.5,3.5-3.4,5.22c0.18,3.23,2.89,3.86,5.93,3.1
		c10.03-2.5,20.09-4.93,30.14-7.35c6.99-1.68,13.99-3.34,21-4.93c3.35-0.76,5.52,0.86,6.39,3.96c0.85,3.04-0.01,5.58-3.21,6.86
		c-2.6,1.05-5.15,2.25-7.82,3.09c-14.54,4.62-29.14,9.07-43.65,13.76c-4.15,1.34-8.46,2.8-12,5.21c-1.72,1.18-2.4,4.69-2.4,7.15
		c0,0.85,3.43,2.44,5.29,2.42c3.1-0.03,6.23-0.91,9.27-1.72c17.63-4.67,35.22-9.47,52.87-14.09c3.32-0.87,7.66-2.18,9.26,2.07
		c1.75,4.65-3.06,5.89-5.98,7.12c-12.44,5.23-25.08,10.02-37.59,15.08c-7.47,3.02-14.92,6.13-22.21,9.54
		c-1.17,0.55-2.4,3.35-1.95,4.4c0.72,1.68,2.64,3.48,4.39,3.93c1.84,0.48,4.15-0.34,6.13-0.98c14.36-4.62,28.64-9.48,43.03-13.97
		c5.66-1.77,11.52-3.1,17.38-3.94c1.54-0.22,4.46,1.83,4.91,3.38c0.44,1.53-1.03,4.14-2.41,5.52c-1.39,1.39-3.67,1.98-5.65,2.69
		c-8.91,3.21-17.89,6.23-26.77,9.54c-6.73,2.51-13.38,5.23-19.98,8.07c-3.06,1.32-4.69,3.66-3.21,7.22c1.42,3.4,3.95,2.67,6.63,1.97
		c3.73-0.97,7.53-1.69,11.28-2.62c29.94-7.49,60.08-14.28,89.74-22.74c22.63-6.46,38.13-31.81,34.1-55.11
		c-2.19-12.63-6.59-25.06-11.36-37.03c-8.32-20.87-26.66-29.44-48.29-23.77c-12.9,3.38-25.8,6.74-38.69,10.14
		c-10.35,2.73-20.74,5.3-30.97,8.41c-1.97,0.6-3.29,3.37-4.9,5.14c1.85,1.56,3.48,3.77,5.61,4.5c2.37,0.8,5.23,0.08,7.84,0.32
		C626.34,937.56,630.9,938.22,635.47,938.79z M475.42,978.93c0-0.06,0-0.12,0-0.18c17.92,0,35.84,0.26,53.75-0.14
		c6.41-0.14,12.82-1.7,19.16-2.95c3.65-0.72,4.71-4.02,3.82-6.96c-0.5-1.65-3.13-2.94-5.07-3.76c-1.52-0.64-3.45-0.38-5.21-0.42
		c-23.86-0.54-47.73-1.04-71.59-1.66c-1.76-0.05-4.13-0.47-5.13-1.65c-3.91-4.59-0.9-12.97,5.04-14.47
		c11.56-2.93,23.14-5.78,34.73-8.58c2.66-0.64,5.12-1.7,4.12-4.76c-0.63-1.91-2.57-4.46-4.27-4.76c-8.08-1.42-16.26-2.81-24.44-3.02
		c-19.82-0.51-39.66-0.28-59.49-0.5c-17.06-0.19-24.6,7.01-24.81,24.05c-0.02,1.92,0.19,3.85,0.32,5.78
		c1.19,17.4,8.25,23.96,25.86,23.97C439.94,978.94,457.68,978.93,475.42,978.93z M307,880.09c9.49-1.59,17.94-2.79,26.26-4.6
		c1.54-0.33,3.49-3.02,3.66-4.77c1.41-14.42,2.44-28.89,3.57-43.05c-7.81-2.94-7.81-2.94-10.74,3.34
		c-2.97,6.34-5.96,12.67-8.9,19.03C316.38,859.7,311.94,869.37,307,880.09z M359.53,307.94c-10.95,9.33-15.95,22.61-12.96,33.15
		c2.89,10.15,13.13,19.44,23.35,20.98C366.48,344.13,363.06,326.29,359.53,307.94z M729.97,311.39c-2.82,18.57-5.57,36.6-8.48,55.72
		c8.59-6.21,15.8-12.04,20.57-20.25C748.87,335.1,744.32,321.51,729.97,311.39z"/>
	<path d="M592.56,760.43c-36.18,0-72.36,0-108.54,0c-7.61,0-15.33-0.58-18.87-8.57c-3.91-8.83-4.15-18.19,0.56-26.89
		c3.04-5.62,9.17-6.35,14.78-6.43c18.09-0.26,36.18-0.15,54.27-0.09c24.41,0.07,48.82,0.31,73.23,0.3
		c30.91-0.01,61.81-0.24,92.72-0.28c3.31,0,6.7,0.27,9.92,1c5.75,1.31,10.2,4.81,10.76,10.85c0.59,6.36,0.73,12.99-0.44,19.22
		c-1.33,7.08-7.84,10.81-16.69,10.86c-13.7,0.08-27.4-0.11-41.09-0.13c-23.53-0.03-47.07-0.01-70.6-0.01
		C592.56,760.31,592.56,760.37,592.56,760.43z"/>
	<path d="M574.24,700.43c-36.55,0-73.1-0.02-109.65,0.01c-18.46,0.01-28.42-16.68-18.98-32.82c1.99-3.4,6.92-5.51,10.94-7.13
		c2.93-1.18,6.58-0.77,9.91-0.76c49.55,0.08,99.1,0.26,148.65,0.31c22.14,0.02,44.27-0.26,66.41-0.32
		c18.82-0.05,25.5,7.96,22.28,26.49c-1.56,8.95-6.38,13.49-15.7,14.02c-6.65,0.37-13.34,0.09-20.02,0.09c-31.28,0-62.56,0-93.84,0
		C574.24,700.35,574.24,700.39,574.24,700.43z"/>
	<path d="M587.78,878.38c-34.77,0-69.53,0-104.3,0c-1.58,0-3.17,0.06-4.74-0.03c-12.49-0.73-17.4-5.4-18.22-17.81
		c-0.24-3.64-0.01-7.41,0.65-10.99c1.52-8.19,6.65-12.52,15.48-13.09c5.24-0.34,10.53-0.09,15.79-0.09c65.69,0,131.37,0,197.06,0
		c15.92,0,21.57,5.39,22.25,21.24c0.08,1.92,0.04,3.86-0.05,5.79c-0.41,9.11-5.32,14.73-14.35,14.84
		c-23.88,0.28-47.77,0.06-71.65,0.04c-12.64-0.01-25.28,0-37.92,0C587.78,878.31,587.78,878.35,587.78,878.38z"/>
	<path d="M612.89,818.26c-36.91,0-73.81,0-110.72,0c-18.46,0-25.11-8.08-21.69-26.32c1.51-8.05,4.93-11.44,13.14-12.79
		c2.41-0.4,4.89-0.58,7.33-0.58c72.23-0.03,144.46-0.03,216.69-0.01c2.1,0,4.21,0.12,6.31,0.3c13.4,1.14,15.61,3.47,15.83,16.89
		c0.05,3.15-0.24,6.31-0.32,9.47c-0.26,9.46-3.83,13.02-13.22,13.04c-13.18,0.03-26.36,0.01-39.54,0.01
		C662.1,818.26,637.5,818.26,612.89,818.26z"/>
	<path d="M618.47,584.47c-31.26,0-62.52-0.03-93.78,0.02c-7.65,0.01-15.33-0.64-19.06-8.38c-4.3-8.92-4.46-18.48,0.18-27.4
		c3.06-5.89,9.2-7.41,15.33-7.59c9.65-0.27,19.31-0.06,28.97-0.07c52.34-0.06,104.68-0.15,157.01-0.12c4.88,0,9.84,0.38,14.62,1.32
		c6.01,1.19,10.16,5.15,11.14,11.25c0.82,5.14,1.33,10.53,0.69,15.65c-1.27,10.26-7.41,15.12-18.69,15.25
		c-14.57,0.17-29.15-0.08-43.73-0.1c-17.56-0.03-35.13-0.01-52.69-0.01C618.47,584.36,618.47,584.41,618.47,584.47z"/>
	<path d="M598.22,642.84c-29.68,0-59.36,0-89.03,0c-1.05,0-2.11,0.01-3.16,0c-20-0.16-29.85-17.16-20.2-34.99
		c4.16-7.69,11.61-8.4,19.14-8.39c9.83,0,19.65,0.46,29.48,0.46c16.86,0,33.71-0.32,50.57-0.3c26.52,0.02,53.03,0.27,79.55,0.3
		c8.07,0.01,16.14-0.29,24.2-0.67c18.04-0.85,24.97,5.97,24.11,23.91c-0.69,14.37-6.21,19.65-20.88,19.67
		C660.73,642.87,629.47,642.84,598.22,642.84z"/>
	<path d="M544.84,457.98c-14.65-1.06-28.61-5.11-39.74-15.92c-2.21-2.15-3.8-5.59-4.28-8.65c-0.35-2.27,0.9-5.94,2.66-7.04
		c1.57-0.99,5.41-0.08,7.21,1.32c7.55,5.87,15.98,9.4,25.28,11.11c15.95,2.94,30.23-1.19,43.33-10.27c2.62-1.82,5.26-4.02,8.52-1.48
		c3.33,2.6,3.51,6.19,1.55,9.46c-1.85,3.09-4.09,6.25-6.91,8.39C571.54,453.17,559.07,457.42,544.84,457.98z"/>
	<path d="M541.18,381.8c5.89,0,11.12,0.07,16.34-0.02c4.62-0.08,6.12,2.55,6.16,6.65c0.04,4.06-1.42,6.96-5.92,7.03
		c-7.01,0.11-14.03,0.22-21.03-0.07c-6.17-0.26-10.18-4.35-10.26-10.46c-0.16-13.32-0.03-26.65-0.06-39.97
		c-0.01-5.2,3.13-6.43,7.58-6.44c4.62-0.01,7.28,1.61,7.23,6.73C541.09,357.15,541.18,369.06,541.18,381.8z"/>
	<path d="M457.71,320.62c-9.88-0.08-17.55-7.95-17.41-17.85c0.14-9.78,8.25-17.65,17.96-17.44c9.87,0.22,17.44,8.07,17.35,17.99
		C475.53,313.23,467.78,320.71,457.71,320.62z"/>
	<path d="M655.09,303.34c-0.1,9.98-7.73,17.38-17.83,17.29c-9.94-0.09-17.44-7.83-17.31-17.85c0.13-9.83,8.14-17.64,17.87-17.44
		C647.67,285.54,655.18,293.37,655.09,303.34z"/>
</g>
</svg>
