<?xml version="1.0" encoding="utf-8"?>
<!-- Generator: Adobe Illustrator 23.0.2, SVG Export Plug-In . SVG Version: 6.00 Build 0)  -->
<svg version="1.1" id="Layer_1" xmlns="http://www.w3.org/2000/svg" xmlns:xlink="http://www.w3.org/1999/xlink" x="0px" y="0px"
	 viewBox="0 0 100 100" enable-background="new 0 0 100 100" xml:space="preserve">
<g display="none">
	<path display="inline" fill="#F5F5F5" d="M91.95,22.03v66c0,4.44-3.6,8.05-8.05,8.05H16.1c-4.44,0-8.05-3.6-8.05-8.05v-66H91.95z"
		/>
	<path display="inline" fill="#E6E6E6" d="M20.12,96.08H16.1c-4.44,0-8.05-3.6-8.05-8.05v-66h4.02v66
		C12.07,92.47,15.68,96.08,20.12,96.08z"/>
	<path display="inline" fill="#E6E6E6" d="M91.95,25.65v26.22c-0.52,0.09-1.06,0.13-1.61,0.13h-1.41c-2.67,0-5.08-1.08-6.83-2.83
		c-1.75-1.75-2.83-4.16-2.83-6.83c0,2.67-1.08,5.08-2.83,6.83c-1.75,1.75-4.16,2.83-6.83,2.83c-5.33,0-9.66-4.32-9.66-9.66
		c0,5.33-4.32,9.66-9.66,9.66h-0.2c-2.67,0-5.08-1.08-6.83-2.83c-1.75-1.75-2.83-4.16-2.83-6.83c0,5.33-4.32,9.66-9.66,9.66h-0.4
		c-2.67,0-5.08-1.08-6.83-2.83c-1.75-1.75-2.83-4.16-2.83-6.83c0,5.33-4.32,9.66-9.66,9.66H9.66c-0.55,0-1.09-0.05-1.61-0.13V25.65
		L91.95,25.65z"/>
	<path display="inline" fill="#FD646F" d="M22.89,22.03l-1.97,13.49c-0.13,1.06-0.2,2.13-0.2,3.21c0,0.17,0,0.34-0.01,0.5
		c-0.26,5.1-4.48,9.15-9.65,9.15H9.66c-2.67,0-5.08-1.08-6.83-2.83c-1.64-1.64-2.69-3.86-2.82-6.33C0,39.07,0,38.9,0,38.73
		c0-1.06,0.23-2.11,0.69-3.07l7.36-13.63l6.77-2.01L22.89,22.03z"/>
	<path display="inline" fill="#FFC682" d="M40.44,22.03v16.7c0,0.17,0,0.34-0.01,0.5c-0.26,5.1-4.48,9.15-9.65,9.15h-0.4
		c-2.67,0-5.08-1.08-6.83-2.83c-1.64-1.64-2.69-3.86-2.82-6.33c-0.01-0.17-0.01-0.33-0.01-0.5c0-1.07,0.07-2.14,0.2-3.21l1.97-13.49
		l8.5-2.01L40.44,22.03z"/>
	<path display="inline" fill="#FD646F" d="M59.96,22.03v16.7c0,0.17,0,0.34-0.01,0.5c-0.26,5.1-4.48,9.15-9.65,9.15h-0.2
		c-5.16,0-9.38-4.05-9.65-9.15c-0.01-0.17-0.01-0.33-0.01-0.5v-16.7l9.96-2.01L59.96,22.03z"/>
	<path display="inline" fill="#FFC682" d="M79.28,38.73c0,0.17,0,0.34-0.01,0.5c-0.13,2.47-1.18,4.69-2.82,6.33
		c-1.75,1.75-4.16,2.83-6.83,2.83c-5.16,0-9.38-4.05-9.65-9.15c-0.01-0.17-0.01-0.33-0.01-0.5v-16.7l8.95-2.01l8.39,2.01l1.78,13.49
		C79.21,36.59,79.28,37.66,79.28,38.73z"/>
	<path display="inline" fill="#FD646F" d="M100,38.73c0,0.17,0,0.34-0.01,0.5c-0.26,5.1-4.48,9.15-9.65,9.15h-1.41
		c-2.67,0-5.08-1.08-6.83-2.83c-1.64-1.64-2.69-3.86-2.82-6.33c-0.01-0.17-0.01-0.33-0.01-0.5c0-1.07-0.06-2.14-0.18-3.21
		l-1.78-13.49l7.3-2.01l7.34,2.01l7.36,13.63c0.23,0.48,0.4,0.98,0.51,1.49C99.94,37.68,100,38.2,100,38.73L100,38.73z"/>
	<path display="inline" fill="#50758D" d="M69.69,60.36c0.09-0.44-0.02-0.9-0.31-1.25c-0.29-0.35-0.72-0.55-1.17-0.55H34.19
		l-0.05-0.24c-0.54-2.54-2.81-4.39-5.41-4.39h-2.57c-0.83,0-1.51,0.68-1.51,1.51s0.68,1.51,1.51,1.51h2.57
		c1.18,0,2.22,0.84,2.46,1.99l4.48,21.18c0.42,2,1.93,3.57,3.81,4.14c-0.23,0.54-0.35,1.13-0.35,1.75c0,2.5,2.03,4.53,4.53,4.53
		s4.53-2.03,4.53-4.53c0-0.53-0.09-1.04-0.26-1.51h6.76c-0.17,0.47-0.26,0.98-0.26,1.51c0,2.5,2.03,4.53,4.53,4.53
		c2.5,0,4.53-2.03,4.53-4.53c0-0.53-0.09-1.04-0.26-1.51h0.36c0.83,0,1.51-0.68,1.51-1.51s-0.68-1.51-1.51-1.51H41.09
		c-1.18,0-2.22-0.84-2.46-1.99l-0.39-1.83h7.63c0,0,0,0,0,0c0,0,0,0,0,0h9.66c0,0,0,0,0,0c0,0,0,0,0,0h9.42
		c0.72,0,1.34-0.51,1.48-1.21l1.59-7.86c0.04-0.12,0.07-0.25,0.08-0.38L69.69,60.36z M45.17,86.02c0,0.83-0.68,1.51-1.51,1.51
		s-1.51-0.68-1.51-1.51s0.68-1.51,1.51-1.51S45.17,85.18,45.17,86.02z M60.46,86.02c0,0.83-0.68,1.51-1.51,1.51
		c-0.83,0-1.51-0.68-1.51-1.51s0.68-1.51,1.51-1.51C59.79,84.51,60.46,85.18,60.46,86.02z M65.35,66.6h-7.1l0.63-5.03h7.49
		L65.35,66.6z M47.21,74.65l-0.63-5.03h8.25l-0.63,5.03H47.21z M46.2,66.6l-0.63-5.03h10.26l-0.63,5.03H46.2z M42.53,61.57
		l0.63,5.03H35.9l-1.06-5.03H42.53z M36.54,69.62h7l0.63,5.03H37.6L36.54,69.62z M57.24,74.65l0.63-5.03h6.87l-1.01,5.03H57.24z"/>
	<path display="inline" fill="#FC4755" d="M0.01,39.24h20.7c-0.26,5.1-4.48,9.15-9.65,9.15H9.66c-2.67,0-5.08-1.08-6.83-2.83
		C1.19,43.93,0.14,41.7,0.01,39.24z"/>
	<path display="inline" fill="#FFAC5C" d="M20.74,39.24h19.69c-0.26,5.1-4.48,9.15-9.65,9.15h-0.4c-2.67,0-5.08-1.08-6.83-2.83
		C21.92,43.93,20.86,41.7,20.74,39.24z"/>
	<path display="inline" fill="#FC4755" d="M40.45,39.24h19.49c-0.26,5.1-4.48,9.15-9.65,9.15h-0.2
		C44.94,48.39,40.72,44.34,40.45,39.24z"/>
	<path display="inline" fill="#FFAC5C" d="M59.97,39.24h19.29c-0.13,2.47-1.18,4.69-2.82,6.33c-1.75,1.75-4.16,2.83-6.83,2.83
		C64.45,48.39,60.23,44.34,59.97,39.24z"/>
	<path display="inline" fill="#FC4755" d="M99.99,39.24c-0.26,5.1-4.48,9.15-9.65,9.15h-1.41c-2.67,0-5.08-1.08-6.83-2.83
		c-1.64-1.64-2.69-3.86-2.82-6.33H99.99z"/>
	<path display="inline" fill="#50758D" d="M8.05,22.03V11.97c0-4.44,3.6-8.05,8.05-8.05H83.9c4.44,0,8.05,3.6,8.05,8.05v10.06H8.05z
		"/>
	<g display="inline">
		<path fill="#2B597F" d="M20.69,15.86c0.68-0.79,1.09-1.82,1.09-2.94c0-2.5-2.03-4.53-4.53-4.53c-1.41,0-2.67,0.65-3.5,1.66
			c-0.38,0.45-0.77,0.89-1.15,1.34c-0.68,0.79-1.09,1.82-1.09,2.94c0,2.5,2.03,4.53,4.53,4.53c1.41,0,2.67-0.65,3.5-1.66
			C19.56,17.18,20.33,16.29,20.69,15.86z"/>
		<path fill="#2B597F" d="M32.62,15.92c0.68-0.79,1.09-1.82,1.09-2.94c0-2.5-2.03-4.53-4.53-4.53c-1.41,0-2.67,0.65-3.5,1.66
			c-0.38,0.45-0.77,0.89-1.15,1.34c-0.68,0.79-1.09,1.82-1.09,2.94c0,2.5,2.03,4.53,4.53,4.53c1.41,0,2.67-0.65,3.5-1.66
			C31.49,17.23,32.25,16.34,32.62,15.92L32.62,15.92z"/>
		<path fill="#2B597F" d="M44.49,15.92c0.68-0.79,1.09-1.82,1.09-2.94c0-2.5-2.03-4.53-4.53-4.53c-1.41,0-2.67,0.65-3.5,1.66
			c-0.38,0.45-0.77,0.89-1.15,1.34c-0.68,0.79-1.09,1.82-1.09,2.94c0,2.5,2.03,4.53,4.53,4.53c1.41,0,2.67-0.65,3.5-1.66
			C43.36,17.23,44.12,16.34,44.49,15.92L44.49,15.92z"/>
	</g>
	<path display="inline" fill="#FD646F" d="M17.25,17.45c-2.5,0-4.53-2.03-4.53-4.53s2.03-4.53,4.53-4.53s4.53,2.03,4.53,4.53
		S19.75,17.45,17.25,17.45z"/>
	<path display="inline" fill="#FFC682" d="M29.18,17.51c-2.5,0-4.53-2.03-4.53-4.53s2.03-4.53,4.53-4.53s4.53,2.03,4.53,4.53
		S31.67,17.51,29.18,17.51z"/>
	<path display="inline" fill="#93DDB7" d="M41.05,17.51c-2.5,0-4.53-2.03-4.53-4.53s2.03-4.53,4.53-4.53c2.5,0,4.53,2.03,4.53,4.53
		S43.54,17.51,41.05,17.51z"/>
	<path display="inline" fill="#2B597F" d="M86.34,15.92c0.68-0.79,1.09-1.82,1.09-2.94c0-2.5-2.03-4.53-4.53-4.53H56.14
		c-1.41,0-2.67,0.65-3.5,1.66c-0.38,0.45-0.77,0.89-1.15,1.34c-0.68,0.79-1.09,1.82-1.09,2.94c0,2.5,2.03,4.53,4.53,4.53h26.76
		c1.41,0,2.67-0.65,3.5-1.66C85.21,17.23,85.97,16.34,86.34,15.92z"/>
	<path display="inline" fill="#F5F5F5" d="M82.9,17.51H56.14c-2.5,0-4.53-2.03-4.53-4.53s2.03-4.53,4.53-4.53H82.9
		c2.5,0,4.53,2.03,4.53,4.53S85.39,17.51,82.9,17.51z"/>
	<path display="inline" fill="#FFC682" d="M29.18,17.51c-2.5,0-4.53-2.03-4.53-4.53s2.03-4.53,4.53-4.53s4.53,2.03,4.53,4.53
		S31.67,17.51,29.18,17.51z"/>
	<path display="inline" fill="#93DDB7" d="M41.05,17.51c-2.5,0-4.53-2.03-4.53-4.53s2.03-4.53,4.53-4.53c2.5,0,4.53,2.03,4.53,4.53
		S43.54,17.51,41.05,17.51z"/>
</g>
<g display="none">
	<path display="inline" fill="#9D9AE8" d="M48.46,10.69h49.59v19.33H48.46V10.69z"/>
	<path display="inline" fill="#FFDA8F" d="M78.23,39.39h19.82v19.33H78.23V39.39z"/>
	<path display="inline" fill="#FFE6B4" d="M48.46,39.39h19.82v19.33H48.46V39.39z"/>
	<path display="inline" fill="#BEECE1" d="M1.95,10.69h37.11v58.23H1.95V10.69z"/>
	<path display="inline" fill="#E7F9E9" d="M1.95,68.92h37.11v20.39H1.95V68.92z"/>
	<path display="inline" d="M98.05,81.06H82.08c-1.08,0-1.95-0.87-1.95-1.95s0.87-1.95,1.95-1.95h15.97c1.08,0,1.95,0.87,1.95,1.95
		S99.13,81.06,98.05,81.06z"/>
	<path display="inline" d="M64.42,81.06H48.46c-1.08,0-1.95-0.87-1.95-1.95s0.87-1.95,1.95-1.95h15.97c1.08,0,1.95,0.87,1.95,1.95
		S65.5,81.06,64.42,81.06z"/>
	<path display="inline" d="M73.29,81.06c-0.82,0-1.56-0.53-1.84-1.3c-0.27-0.75-0.04-1.63,0.57-2.15c0.64-0.54,1.58-0.61,2.29-0.17
		c0.68,0.42,1.04,1.25,0.88,2.04C75.02,80.39,74.21,81.06,73.29,81.06z"/>
	<path display="inline" d="M98.05,70.85H48.46c-1.08,0-1.95-0.87-1.95-1.95c0-1.08,0.87-1.95,1.95-1.95h49.59
		c1.08,0,1.95,0.87,1.95,1.95S99.13,70.85,98.05,70.85z"/>
	<path display="inline" d="M98.05,91.26H48.46c-1.08,0-1.95-0.87-1.95-1.95c0-1.08,0.87-1.95,1.95-1.95h49.59
		c1.08,0,1.95,0.87,1.95,1.95C100,90.39,99.13,91.26,98.05,91.26z"/>
	<path display="inline" d="M39.06,8.74H1.95C0.87,8.74,0,9.61,0,10.69v78.62c0,1.08,0.87,1.95,1.95,1.95h37.11
		c1.08,0,1.95-0.87,1.95-1.95V10.69C41.02,9.61,40.14,8.74,39.06,8.74L39.06,8.74z M3.91,12.65h33.2v54.32H3.91V12.65z M37.11,87.35
		H3.91V70.87h33.2V87.35z"/>
	<path display="inline" d="M68.27,60.68H48.46c-1.08,0-1.95-0.87-1.95-1.95V39.39c0-1.08,0.87-1.95,1.95-1.95h19.82
		c1.08,0,1.95,0.87,1.95,1.95v19.33C70.22,59.81,69.35,60.68,68.27,60.68z M50.41,56.78h15.91V41.35H50.41V56.78z"/>
	<path display="inline" d="M98.05,60.68H78.23c-1.08,0-1.95-0.87-1.95-1.95V39.39c0-1.08,0.87-1.95,1.95-1.95h19.82
		c1.08,0,1.95,0.87,1.95,1.95v19.33C100,59.81,99.13,60.68,98.05,60.68z M80.18,56.78h15.91V41.35H80.18V56.78z"/>
	<path display="inline" d="M98.05,31.98H48.46c-1.08,0-1.95-0.87-1.95-1.95V10.69c0-1.08,0.87-1.95,1.95-1.95h49.59
		c1.08,0,1.95,0.87,1.95,1.95v19.33C100,31.11,99.13,31.98,98.05,31.98z M50.41,28.07h45.68V12.65H50.41V28.07z"/>
</g>
<g id="Page-1" display="none">
	<g display="inline">
		<path id="Shape" fill="#FFDC00" d="M71.66,78.33h-60c5.52,0,10,4.48,10,10c0,5.52-4.48,10-10,10s-10-4.48-10-10V11.67
			c0-5.52,4.48-10,10-10s10,4.48,10,10s-4.48,10-10,10h34.5c-11.45,12.85-7.18,24.68-5.48,28.23c1.39-2.36,2.95-4.61,4.67-6.73
			c-1.29,2.92-2.26,5.96-2.9,9.08c5.33,4.45,18.65,3.97,25.32-8.97c0.99-1.94,2.31-3.7,3.9-5.18V78.33z"/>
		<path fill="#FEC108" d="M67.76,43.28c-0.35,0.67-0.72,1.29-1.1,1.89v33.15h5V38.1C70.07,39.59,68.75,41.34,67.76,43.28
			L67.76,43.28z"/>
		<path fill="#FFEB3A" d="M81.66,11.67c0,0.29-0.02,0.58-0.05,0.87c-11.5-0.37-23.13-3.38-33.85,7.4c-0.57,0.58-1.12,1.15-1.6,1.73
			h-34.5c5.52,0,10-4.48,10-10s-4.48-10-10-10h60C77.19,1.67,81.66,6.15,81.66,11.67z"/>
		<path fill="#FDD834" d="M71.66,1.67h-5c5.52,0,10,4.48,10,10c0,0.2-0.02,0.4-0.03,0.59c1.67,0.11,3.32,0.22,4.98,0.27
			c0.03-0.29,0.05-0.58,0.05-0.87c0-2.65-1.05-5.2-2.93-7.07S74.32,1.67,71.66,1.67z"/>
		<path fill="#FFEB3A" d="M81.66,88.33c0,5.52-4.48,10-10,10h-60c5.52,0,10-4.48,10-10c0-5.52-4.48-10-10-10h60
			C77.19,78.33,81.66,82.81,81.66,88.33z"/>
		<path fill="#FDD834" d="M71.66,78.33h-5c5.52,0,10,4.48,10,10c0,5.52-4.48,10-10,10h5c5.52,0,10-4.48,10-10
			C81.66,82.81,77.19,78.33,71.66,78.33z"/>
		<path fill="#3F51B5" d="M45.35,43.17c-1.29,2.92-2.26,5.96-2.9,9.08c-0.75,3.46-1.19,6.98-1.32,10.52l-7.6,5.57
			c1.29-6.51,3.71-12.75,7.15-18.43C42.07,47.54,43.63,45.29,45.35,43.17L45.35,43.17z"/>
		<path fill="#02A9F4" d="M98.33,9.22c0,0-1.15,18.37-11.8,21.78c-5.23,1.68-10.72,3.22-14.87,7.1c-1.59,1.49-2.91,3.24-3.9,5.18
			C61.1,56.22,47.78,56.7,42.45,52.25c0.64-3.12,1.61-6.17,2.9-9.08c-1.72,2.13-3.28,4.38-4.67,6.73
			c-1.7-3.55-5.97-15.38,5.48-28.23c0.48-0.58,1.03-1.15,1.6-1.73c10.72-10.78,22.35-7.77,33.85-7.4
			C87.39,13.01,93.18,11.87,98.33,9.22L98.33,9.22z"/>
		<path fill="#0377BC" d="M93.1,11.36C92.42,16.31,89.93,28.31,81.53,31c-5.23,1.68-10.72,3.22-14.87,7.1
			c-1.59,1.49-2.91,3.24-3.9,5.18c-2.76,5.96-8.26,10.18-14.73,11.3c6.28,0.99,14.81-1.76,19.73-11.3c0.99-1.94,2.31-3.7,3.9-5.18
			c4.15-3.88,9.63-5.42,14.87-7.1c10.65-3.42,11.8-21.78,11.8-21.78C96.67,10.13,94.92,10.85,93.1,11.36z"/>
		<g>
			<path d="M99.22,7.81c-0.52-0.32-1.17-0.34-1.7-0.05c-4.38,2.3-9.29,3.38-14.23,3.14C82.89,4.78,77.81,0.01,71.66,0h-60
				C5.23,0.01,0.01,5.23,0,11.67v76.66C0.01,94.77,5.23,99.99,11.67,100h60c6.08-0.05,11.11-4.76,11.55-10.83
				c0.44-6.07-3.87-11.45-9.88-12.37V38.83c3.48-2.98,7.91-4.4,12.52-5.86l1.19-0.38c11.6-3.72,12.9-22.47,12.96-23.27
				C100.03,8.71,99.74,8.13,99.22,7.81z M71.66,3.33c4.25,0.01,7.81,3.23,8.24,7.46c-1.24-0.06-2.5-0.15-3.76-0.24
				c-4.67-0.49-9.38-0.45-14.04,0.12c-0.04,0-0.08,0.01-0.12,0.02c-5.88,0.92-11.3,3.76-15.41,8.06c-0.41,0.41-0.8,0.83-1.18,1.24
				H19.83c2.24-2.19,3.51-5.2,3.51-8.33s-1.26-6.14-3.51-8.33H71.66z M3.33,88.33V11.67c0-4.6,3.73-8.33,8.33-8.33S20,7.07,20,11.67
				S16.27,20,11.67,20C10.75,20,10,20.75,10,21.67c0,0.92,0.75,1.67,1.67,1.67h30.99c-8.6,11.68-5.63,22.28-3.84,26.47
				c-3.05,5.26-5.29,10.94-6.65,16.87H15c-0.92,0-1.67,0.75-1.67,1.67c0,0.92,0.75,1.67,1.67,1.67h18.53c0.35,0,0.7-0.11,0.98-0.32
				l7.61-5.57c0.43-0.31,0.68-0.81,0.68-1.33c0.1-2.63,0.37-5.24,0.83-7.83c2.15,1.01,4.49,1.53,6.87,1.5
				c1.26,0,2.51-0.13,3.74-0.38c4.91-1.04,9.28-3.82,12.3-7.82c0.03-0.03,0.05-0.07,0.08-0.11c1-1.29,1.88-2.66,2.63-4.1
				c0.24-0.46,0.49-0.9,0.75-1.32v33.95H11.67c-0.92,0-1.67,0.75-1.67,1.67S10.75,80,11.67,80c4.6,0,8.33,3.73,8.33,8.33
				c0,4.6-3.73,8.33-8.33,8.33S3.33,92.93,3.33,88.33z M40.44,53.76c-0.49,2.69-0.81,5.41-0.94,8.13l-3.29,2.4
				C37.28,60.66,38.7,57.14,40.44,53.76z M80,88.33c-0.01,4.6-3.73,8.33-8.33,8.33H19.83c2.24-2.19,3.51-5.2,3.51-8.33
				c0-3.14-1.26-6.14-3.51-8.33h51.83C76.26,80,79.99,83.73,80,88.33z M86.02,29.41l-1.18,0.38c-3.4,0.97-6.69,2.27-9.83,3.89
				c-1.42-0.05-2.77-0.59-3.83-1.53c-0.42-0.42-1.04-0.59-1.61-0.43s-1.02,0.6-1.18,1.18c-0.15,0.58,0.01,1.19,0.43,1.61
				c0.73,0.71,1.59,1.28,2.53,1.67c-2.1,1.75-3.82,3.91-5.06,6.34c-0.52,1.01-1.11,1.97-1.76,2.89c-3.03,0.01-6.02-0.64-8.77-1.9
				c-0.82-0.41-1.83-0.08-2.24,0.75s-0.08,1.83,0.75,2.24c2.35,1.13,4.89,1.83,7.49,2.08c-2.29,2.13-5.11,3.59-8.17,4.24
				c-3.13,0.73-6.43,0.28-9.25-1.27c0.59-2.57,1.41-5.08,2.46-7.5C59.64,28.17,68.98,24.48,85,22.26c0.59-0.08,1.09-0.47,1.32-1.02
				c0.22-0.55,0.14-1.18-0.23-1.65s-0.96-0.71-1.55-0.63c-16.62,2.31-26.92,6.35-40.46,23.13c-0.02,0.02-0.03,0.04-0.04,0.06
				c-1.09,1.35-2.07,2.7-2.97,4.05c-1.93-6.83-0.6-14.17,3.59-19.9c0.07,0.82,0.21,1.64,0.4,2.44c0.23,0.89,1.13,1.43,2.03,1.21
				c0.89-0.23,1.43-1.13,1.21-2.03c-0.45-1.92-0.54-3.91-0.24-5.87c0.29-0.31,0.59-0.63,0.9-0.95c2.84-2.96,6.38-5.14,10.3-6.36
				c-0.61,1.68-0.92,3.46-0.92,5.25c0,0.92,0.75,1.67,1.67,1.67c0.92,0,1.67-0.75,1.67-1.67c-0.02-2.16,0.56-4.29,1.69-6.14
				c2.78-0.33,5.58-0.41,8.37-0.23c-0.61,0.7-1.13,1.47-1.56,2.3c-0.41,0.82-0.07,1.82,0.75,2.23c0.23,0.12,0.49,0.18,0.75,0.17
				c0.64,0,1.22-0.36,1.5-0.93c0.74-1.4,1.8-2.6,3.1-3.5c6.59,0.45,13.38,0.87,20.05-1.87C95.51,17.1,93.05,27.17,86.02,29.41
				L86.02,29.41z"/>
			<path d="M15,61.67h13.33c0.92,0,1.67-0.75,1.67-1.67s-0.75-1.67-1.67-1.67H15c-0.92,0-1.67,0.75-1.67,1.67S14.08,61.67,15,61.67z
				"/>
			<path d="M15,53.33h16.67c0.92,0,1.67-0.75,1.67-1.67S32.59,50,31.67,50H15c-0.92,0-1.67,0.75-1.67,1.67S14.08,53.33,15,53.33z"/>
			<path d="M15,45h16.67c0.92,0,1.67-0.75,1.67-1.67s-0.75-1.67-1.67-1.67H15c-0.92,0-1.67,0.75-1.67,1.67S14.08,45,15,45z"/>
			<path d="M15,36.67h16.67c0.92,0,1.67-0.75,1.67-1.67s-0.75-1.67-1.67-1.67H15c-0.92,0-1.67,0.75-1.67,1.67S14.08,36.67,15,36.67z
				"/>
		</g>
	</g>
</g>
<g display="none">
	<path display="inline" fill="#FAA515" d="M47.97,20.71l-14.48,7.05c-1.3,0.65-2.33,1.74-2.92,3.07L12.51,76.11
		c-1.87,4.23,0.04,9.17,4.25,11.04l17.96,7.96h13.34L47.97,20.71z"/>
	<path display="inline" fill="#FAD207" d="M88.21,82.36v8.72c0,4.86-4.06,8.92-8.92,8.92H42.62c-4.86,0-8.72-4.06-8.72-8.92V39.74
		c0-1.53,0.43-2.98,1.41-4.16l11.03-13.36c1.25-1.52,3.04-2.5,5.01-2.5h19.23c1.97,0,3.76,0.98,5.01,2.5L86.6,35.58
		c0.97,1.18,1.61,2.63,1.61,4.16v35.68L88.21,82.36L88.21,82.36z"/>
	<g display="inline">
		<path fill-rule="evenodd" clip-rule="evenodd" fill="#F8C201" d="M57.96,54.51L57.96,54.51l-0.05-0.05
			c-0.03-0.03-0.05-0.05-0.08-0.08l-2.05-2.05l-0.29,0.58c-0.68-0.24-1.41-0.38-2.17-0.38h-0.2c-3.55,0-6.44,2.89-6.44,6.44
			c0,0.74,0.13,1.44,0.35,2.1l-0.6,0.31l2.12,2.13c0.01,0.01,0.02,0.02,0.03,0.03l0.03,0.03l0,0c1.16,1.14,2.76,1.85,4.51,1.85h0.2
			c3.55,0,6.44-2.89,6.44-6.44C59.76,57.24,59.08,55.67,57.96,54.51L57.96,54.51z M53.32,62.44h-0.2c-1.91,0-3.47-1.56-3.47-3.47
			c0-1.91,1.56-3.47,3.47-3.47h0.2c1.91,0,3.47,1.56,3.47,3.47C56.79,60.88,55.23,62.44,53.32,62.44z"/>
		<path fill-rule="evenodd" clip-rule="evenodd" fill="#F8C201" d="M76.57,53.16l-1.98-1.98L47.12,78.65l1.98,1.98
			c0.29,0.29,0.67,0.44,1.05,0.44c0.38,0,0.76-0.15,1.05-0.44l25.37-25.37C77.15,54.68,77.15,53.74,76.57,53.16L76.57,53.16z"/>
		<path fill-rule="evenodd" clip-rule="evenodd" fill="#F8C201" d="M76.96,69.76L76.96,69.76l-1.64-1.66l0.11,0.67
			c-0.82-0.38-1.73-0.59-2.68-0.59h-0.2c-3.55,0-6.44,2.89-6.44,6.44c0,0.92,0.19,1.79,0.54,2.58l-0.73-0.11l1.97,1.97
			c0.07,0.07,0.14,0.15,0.22,0.22l0.05,0.05l0,0c1.15,1.08,2.7,1.74,4.39,1.74h0.2c3.55,0,6.44-2.89,6.44-6.44
			C79.19,72.69,78.32,70.95,76.96,69.76L76.96,69.76z M72.74,78.1h-0.2c-1.91,0-3.47-1.56-3.47-3.47s1.56-3.47,3.47-3.47h0.2
			c1.91,0,3.47,1.56,3.47,3.47S74.66,78.1,72.74,78.1z"/>
	</g>
	<g display="inline">
		<path d="M48.17,79.09c-0.38,0-0.76-0.15-1.05-0.44c-0.58-0.58-0.58-1.52,0-2.1l25.37-25.37c0.58-0.58,1.52-0.58,2.1,0
			c0.58,0.58,0.58,1.52,0,2.1L49.22,78.65C48.93,78.94,48.55,79.09,48.17,79.09L48.17,79.09z"/>
		<path d="M51.34,63.43h-0.2c-3.55,0-6.44-2.89-6.44-6.44s2.89-6.44,6.44-6.44h0.2c3.55,0,6.44,2.89,6.44,6.44
			S54.89,63.43,51.34,63.43z M51.14,53.52c-1.91,0-3.47,1.56-3.47,3.47s1.56,3.47,3.47,3.47h0.2c1.91,0,3.47-1.56,3.47-3.47
			s-1.56-3.47-3.47-3.47H51.14z"/>
		<path d="M70.76,79.09h-0.2c-3.55,0-6.44-2.89-6.44-6.44s2.89-6.44,6.44-6.44h0.2c3.55,0,6.44,2.89,6.44,6.44
			S74.32,79.09,70.76,79.09z M70.56,69.18c-1.91,0-3.47,1.56-3.47,3.47s1.56,3.47,3.47,3.47h0.2c1.91,0,3.47-1.56,3.47-3.47
			s-1.56-3.47-3.47-3.47H70.56z"/>
	</g>
	<path display="inline" fill="#E0A446" d="M64.18,31.81c-0.65,0-1.24-0.42-1.43-1.07c-0.23-0.79,0.23-1.61,1.02-1.84
		c0.17-0.05,0.34-0.1,0.5-0.16c4.53-1.55,7.58-5.81,7.58-10.6V1.49c0-0.82,0.67-1.49,1.49-1.49s1.49,0.67,1.49,1.49v16.65
		c0,6.07-3.85,11.46-9.59,13.42c-0.21,0.07-0.43,0.14-0.64,0.2C64.46,31.79,64.32,31.81,64.18,31.81L64.18,31.81z"/>
	<path display="inline" d="M61.05,35.48c-2.57,0-4.66-2.09-4.66-4.66s2.09-4.66,4.66-4.66c2.57,0,4.66,2.09,4.66,4.66
		S63.62,35.48,61.05,35.48z"/>
</g>
<g id="Page-1_1_" display="none">
	<g display="inline">
		<path id="Shape_1_" fill="#00838F" d="M98.33,40l-49.45,5l-2.45-0.27L1.67,40l14.18-15.6c1.58-1.74,3.82-2.74,6.17-2.73h55.97
			c2.35,0,4.59,0.99,6.17,2.73L98.33,40z"/>
		<path fill="#00BCD4" d="M93.33,40l-46.9,4.73L1.67,40l14.18-15.6c1.58-1.74,3.82-2.74,6.17-2.73h50.97c2.35,0,4.59,0.99,6.17,2.73
			L93.33,40z"/>
		<path fill="#CFD8DC" d="M68.33,3.33v28.33H31.67V3.33c0-0.92,0.75-1.67,1.67-1.67h33.33C67.59,1.67,68.33,2.41,68.33,3.33z"/>
		<path fill="#F5F5F5" d="M63.33,3.33v28.33H31.67V3.33c0-0.92,0.75-1.67,1.67-1.67h28.33C62.59,1.67,63.33,2.41,63.33,3.33z"/>
		<path d="M63.33,81.67H36.67C35.75,81.67,35,80.92,35,80c0-0.92,0.75-1.67,1.67-1.67h26.67c0.92,0,1.67,0.75,1.67,1.67
			C65,80.92,64.25,81.67,63.33,81.67z"/>
		<path fill="#0377BC" d="M98.33,40v31.67c0,2.21-0.88,4.33-2.44,5.89C94.33,79.12,92.21,80,90,80H10c-2.21,0-4.33-0.88-5.89-2.44
			C2.55,76,1.67,73.88,1.67,71.67V40H98.33z"/>
		<path fill="#02A9F4" d="M93.33,40v31.67c0,2.21-0.88,4.33-2.44,5.89C89.33,79.12,87.21,80,85,80H10c-2.21,0-4.33-0.88-5.89-2.44
			C2.55,76,1.67,73.88,1.67,71.67V40H93.33z"/>
		<path fill="#37474F" d="M76.67,65v15H23.33V65c0-7.36,5.97-13.33,13.33-13.33h26.67C70.7,51.67,76.67,57.64,76.67,65z"/>
		<path fill="#545C60" d="M71.67,65v15H23.33V65c0-7.36,5.97-13.33,13.33-13.33h21.67C65.7,51.67,71.67,57.64,71.67,65z"/>
		<path d="M63.33,81.67H36.67C35.75,81.67,35,80.92,35,80c0-0.92,0.75-1.67,1.67-1.67h26.67c0.92,0,1.67,0.75,1.67,1.67
			C65,80.92,64.25,81.67,63.33,81.67z"/>
		<circle id="Oval" fill="#60A917" cx="88.33" cy="51.67" r="3.33"/>
		<path fill="#37474F" d="M70,70v6.67H30V70c0.01-1.84,1.49-3.33,3.33-3.33h33.33C68.51,66.67,69.99,68.16,70,70z"/>
		<path fill="#607D8B" d="M65,70v6.67H30V70c0.01-1.84,1.49-3.33,3.33-3.33h28.33C63.51,66.67,64.99,68.16,65,70z"/>
		<path fill="#283593" d="M81.67,93.33H18.33c-0.63,0-1.21-0.36-1.49-0.92c-0.28-0.56-0.22-1.24,0.16-1.75L25,80l5-6.67h40L75,80
			l8,10.67c0.38,0.51,0.44,1.18,0.16,1.75C82.87,92.98,82.3,93.33,81.67,93.33z"/>
		<path fill="#3F51B5" d="M76.67,93.33H18.33c-0.63,0-1.21-0.36-1.49-0.92c-0.28-0.56-0.22-1.24,0.16-1.75L25,80l5-6.67h35L70,80
			l8,10.67c0.38,0.51,0.44,1.18,0.16,1.75C77.87,92.98,77.3,93.33,76.67,93.33z"/>
		<path fill="#CFD8DC" d="M69.08,98.33H30.92c-0.56,0-1.09-0.29-1.4-0.76c-0.31-0.47-0.35-1.07-0.12-1.59l6.82-15
			c0.27-0.59,0.86-0.98,1.52-0.98h24.53c0.65,0.01,1.25,0.39,1.52,0.98l6.82,15c0.23,0.52,0.19,1.11-0.12,1.59
			C70.17,98.04,69.65,98.33,69.08,98.33z"/>
		<path fill="#F5F5F5" d="M64.83,98.33H30.92c-0.56,0-1.09-0.29-1.4-0.76c-0.31-0.47-0.35-1.07-0.12-1.59l6.82-15
			c0.27-0.59,0.86-0.98,1.52-0.98H58c0.66,0,1.25,0.38,1.52,0.98l6.83,15c0.23,0.52,0.19,1.11-0.12,1.59
			C65.92,98.04,65.4,98.33,64.83,98.33z"/>
		<path d="M63.33,81.67H36.67C35.75,81.67,35,80.92,35,80c0-0.92,0.75-1.67,1.67-1.67h26.67c0.92,0,1.67,0.75,1.67,1.67
			C65,80.92,64.25,81.67,63.33,81.67z"/>
		<path d="M90,81.67H75c-0.92,0-1.67-0.75-1.67-1.67c0-0.92,0.75-1.67,1.67-1.67h15c3.68,0,6.67-2.98,6.67-6.67v-30H3.33v30
			c0,3.68,2.98,6.67,6.67,6.67h15c0.92,0,1.67,0.75,1.67,1.67c0,0.92-0.75,1.67-1.67,1.67H10c-5.52-0.01-9.99-4.48-10-10V40
			c0-0.92,0.75-1.67,1.67-1.67h96.67c0.92,0,1.67,0.75,1.67,1.67v31.67C99.99,77.19,95.52,81.66,90,81.67z"/>
		<path d="M98.33,41.67H1.67c-0.66,0-1.26-0.39-1.52-0.99s-0.15-1.31,0.29-1.8l14.19-15.6c1.9-2.08,4.58-3.27,7.4-3.27h9.65
			c0.92,0,1.67,0.75,1.67,1.67s-0.75,1.67-1.67,1.67h-9.65c-1.88,0-3.67,0.79-4.93,2.18L5.44,38.33h89.13L82.91,25.52
			c-1.26-1.39-3.05-2.18-4.93-2.18h-9.65c-0.92,0-1.67-0.75-1.67-1.67S67.41,20,68.33,20h9.65c2.82,0,5.5,1.19,7.4,3.27l14.19,15.6
			c0.44,0.49,0.56,1.19,0.29,1.8S98.99,41.67,98.33,41.67z"/>
		<path d="M76.67,81.67H75c-0.92,0-1.67-0.75-1.67-1.67c0-0.92,0.75-1.67,1.67-1.67V65c-0.01-6.44-5.23-11.66-11.67-11.67H36.67
			C30.23,53.34,25.01,58.56,25,65v13.33c0.92,0,1.67,0.75,1.67,1.67c0,0.92-0.75,1.67-1.67,1.67h-1.67c-0.92,0-1.67-0.75-1.67-1.67
			V65c0.01-8.28,6.72-14.99,15-15h26.67c8.28,0.01,14.99,6.72,15,15v15C78.33,80.92,77.59,81.67,76.67,81.67z"/>
		<path d="M63.33,81.67H36.67C35.75,81.67,35,80.92,35,80c0-0.92,0.75-1.67,1.67-1.67h26.67c0.92,0,1.67,0.75,1.67,1.67
			C65,80.92,64.25,81.67,63.33,81.67z"/>
		<path d="M88.33,56.67c-2.76,0-5-2.24-5-5c0-2.76,2.24-5,5-5c2.76,0,5,2.24,5,5C93.33,54.43,91.09,56.67,88.33,56.67z M88.33,50
			c-0.92,0-1.67,0.75-1.67,1.67c0,0.92,0.75,1.67,1.67,1.67c0.92,0,1.67-0.75,1.67-1.67C90,50.75,89.25,50,88.33,50z"/>
		<circle cx="88.33" cy="61.67" r="1.67"/>
		<circle cx="88.33" cy="66.67" r="1.67"/>
		<circle cx="88.33" cy="71.67" r="1.67"/>
		<path d="M81.67,95H69.4c-0.92,0-1.67-0.75-1.67-1.67s0.75-1.67,1.67-1.67h12.27L69.17,75H30.83l-12.5,16.67H30.6
			c0.92,0,1.67,0.75,1.67,1.67S31.52,95,30.6,95H18.33c-1.26,0-2.42-0.71-2.98-1.84c-0.56-1.13-0.44-2.48,0.31-3.49l13-17.33
			c0.31-0.42,0.81-0.67,1.33-0.67h40c0.52,0,1.02,0.25,1.33,0.67l13,17.33c0.76,1.01,0.88,2.36,0.31,3.49
			C84.08,94.29,82.93,95,81.67,95z"/>
		<path d="M70,75H30c-0.92,0-1.67-0.75-1.67-1.67V70c0-2.76,2.24-5,5-5h33.33c2.76,0,5,2.24,5,5v3.33C71.67,74.25,70.92,75,70,75z
			 M31.67,71.67h36.67V70c0-0.92-0.75-1.67-1.67-1.67H33.33c-0.92,0-1.67,0.75-1.67,1.67V71.67z"/>
		<path d="M69.08,100H30.92c-1.13,0-2.19-0.58-2.8-1.53c-0.61-0.95-0.7-2.15-0.23-3.18l7.26-15.98c0.27-0.59,0.86-0.98,1.52-0.98
			h26.67c0.65,0,1.25,0.38,1.52,0.98l7.26,15.98c0.47,1.03,0.38,2.23-0.23,3.18C71.27,99.42,70.21,100,69.08,100z M37.75,81.67
			l-6.82,15h38.17l-6.82-15H37.75z"/>
		<path d="M68.33,33.33H31.67c-0.92,0-1.67-0.75-1.67-1.67V3.33C30,1.49,31.49,0,33.33,0h33.33C68.51,0,70,1.49,70,3.33v28.33
			C70,32.59,69.25,33.33,68.33,33.33z M33.33,30h33.33V3.33H33.33V30z"/>
		<path d="M71.67,33.33H28.33c-0.92,0-1.67-0.75-1.67-1.67c0-0.92,0.75-1.67,1.67-1.67h43.33c0.92,0,1.67,0.75,1.67,1.67
			C73.33,32.59,72.59,33.33,71.67,33.33z"/>
		<path d="M56.67,88.33H43.33c-0.92,0-1.67-0.75-1.67-1.67S42.41,85,43.33,85h13.33c0.92,0,1.67,0.75,1.67,1.67
			S57.59,88.33,56.67,88.33z"/>
		<path d="M60,93.33H40c-0.92,0-1.67-0.75-1.67-1.67c0-0.92,0.75-1.67,1.67-1.67h20c0.92,0,1.67,0.75,1.67,1.67
			C61.67,92.59,60.92,93.33,60,93.33z"/>
		<path d="M8.33,50c-0.92,0-1.67-0.75-1.67-1.67v-1.67c0-0.92,0.75-1.67,1.67-1.67C9.25,45,10,45.75,10,46.67v1.67
			C10,49.25,9.25,50,8.33,50z"/>
		<path d="M8.33,66.67c-0.92,0-1.67-0.75-1.67-1.67V55c0-0.92,0.75-1.67,1.67-1.67C9.25,53.33,10,54.08,10,55v10
			C10,65.92,9.25,66.67,8.33,66.67z"/>
	</g>
</g>
<g id="Page-1_2_" display="none">
	<g display="inline">
		<path id="Shape_2_" fill="#35495E" d="M9.8,90.02L0.23,35.69c-0.09-0.52-0.15-1.05-0.17-1.59c-0.14-6.16,4.28-11.48,10.36-12.47
			l18.47-3.26l-0.5,71.65H9.8z"/>
		<path fill="#2C3E50" d="M80.88,87.64c-0.32,1.33-1.4,2.34-2.74,2.59l-54.36,9.59c-3.43,0.6-6.94-0.31-9.65-2.49
			s-4.35-5.42-4.5-8.89c-0.14-5.89,3.92-11.05,9.67-12.31l15.23,4.28h-0.02L20.8,82.83c-1.53,0.27-2.86,1.21-3.62,2.56
			s-0.88,2.98-0.31,4.42c0.98,2.33,3.45,3.66,5.93,3.17l41.54-7.33L80.88,87.64z"/>
		<path fill="#F9EAB0" d="M34.51,80.4L20.8,82.83c-1.53,0.27-2.86,1.21-3.62,2.56c-0.76,1.35-0.88,2.98-0.31,4.42
			c0.98,2.33,3.45,3.66,5.93,3.17l41.54-7.33L34.51,80.4z"/>
		<path fill="#E64C3C" d="M22.05,57.19l9.58-54.35c0.34-1.87,2.12-3.11,4-2.8l53.94,9.51c6.09,0.99,10.51,6.31,10.37,12.48
			c-0.02,0.53-0.08,1.06-0.17,1.58l-9.58,54.35L22.05,57.19z"/>
		<path fill="#3F5C6C" d="M78.29,18.05c-0.1,0-0.2-0.01-0.3-0.03l-39.06-6.89c-0.88-0.22-1.44-1.08-1.29-1.98
			c0.16-0.89,0.98-1.51,1.89-1.41l39.06,6.88c0.88,0.15,1.5,0.96,1.42,1.85C79.93,17.37,79.19,18.05,78.29,18.05L78.29,18.05z"/>
		<path fill="#3F5C6C" d="M70,25.34c-0.1,0-0.2-0.01-0.3-0.03l-25.47-4.49c-0.92-0.19-1.52-1.07-1.36-1.99s1.03-1.54,1.95-1.41
			l25.48,4.48c0.89,0.15,1.51,0.95,1.43,1.85S70.9,25.34,70,25.34z"/>
		<path id="Rectangle-path" fill="#ECF0F1" d="M37.93,26.74l35.67,6.3c0.94,0.17,1.56,1.06,1.4,2l-3,16.99
			c-0.17,0.94-1.06,1.56-2,1.4l-35.67-6.3c-0.94-0.17-1.56-1.06-1.4-2l3-16.99C36.1,27.2,36.99,26.57,37.93,26.74z"/>
		<path fill="#C03A2B" d="M99.94,22.03c-0.02,0.53-0.08,1.06-0.17,1.59l-9.59,54.34l-13.3-4.05l7.71-43.7l1.83-10.31l1.86-10.55
			l1.29,0.22C95.66,10.55,100.08,15.87,99.94,22.03L99.94,22.03z"/>
		<path fill="#802F34" d="M79.99,63.9l-53.94-9.5c-0.2-0.03-0.4-0.05-0.6-0.05c-1.79,0-3.28,1.37-3.43,3.15
			c-0.15,1.78,1.08,3.38,2.84,3.69l54.34,9.57c1.53,0.28,2.85,1.22,3.61,2.58c0.76,1.36,0.87,2.98,0.31,4.42
			c-0.97,2.32-3.44,3.64-5.92,3.16l-54.13-9.54c-0.2-0.03-0.4-0.05-0.6-0.05c-1.79,0-3.29,1.36-3.44,3.15
			c-0.16,1.78,1.08,3.39,2.84,3.7l54.36,9.57c3.42,0.6,6.94-0.3,9.65-2.48c2.71-2.18,4.35-5.41,4.51-8.89
			C90.5,70.22,86.08,64.89,79.99,63.9L79.99,63.9z"/>
		<path fill="#F9EAB0" d="M83.11,77.76c-0.97,2.32-3.44,3.64-5.92,3.16l-54.13-9.54l1.79-10.19l54.34,9.57
			c1.53,0.28,2.85,1.22,3.61,2.58C83.56,74.69,83.67,76.32,83.11,77.76L83.11,77.76z"/>
	</g>
</g>
<g display="none">
	<path display="inline" fill="#E2E0E0" d="M50,3.13C24.11,3.13,3.13,24.11,3.13,50c0,11.51,4.15,22.05,11.03,30.21
		c1.69,2,3.54,3.86,5.53,5.55c-0.61-2.44-0.94-5-0.94-7.63c0-17.11,13.75-31.01,30.81-31.25c0.15,0,0.29,0,0.44,0
		c-8.63,0-15.63-7-15.63-15.63s7-15.63,15.63-15.63s15.63,7,15.63,15.63s-7,15.63-15.63,15.63c0.15,0,0.29,0,0.44,0
		c17.05,0.24,30.81,14.14,30.81,31.25c0,2.63-0.33,5.19-0.94,7.63c1.99-1.69,3.85-3.55,5.53-5.55c6.88-8.16,11.03-18.7,11.03-30.21
		C96.88,24.11,75.89,3.13,50,3.13L50,3.13z"/>
	<path display="inline" fill="#CECCCC" d="M50,3.13c-1.31,0-2.62,0.05-3.91,0.16C70.15,5.27,89.06,25.43,89.06,50
		c0,9.63-2.9,18.58-7.88,26.03c0.05,0.69,0.07,1.39,0.07,2.1c0,2.63-0.33,5.19-0.94,7.63c1.99-1.69,3.85-3.55,5.53-5.55
		c6.88-8.16,11.03-18.7,11.03-30.21C96.88,24.11,75.89,3.13,50,3.13L50,3.13z"/>
	<circle display="inline" fill="#98D7CE" cx="50" cy="31.25" r="15.63"/>
	<path display="inline" fill="#ACEBE2" d="M81.25,78.13c0,2.63-0.33,5.19-0.94,7.63C72.14,92.69,61.56,96.88,50,96.88
		s-22.14-4.18-30.31-11.12c-0.61-2.44-0.94-5-0.94-7.63c0-17.11,13.75-31.01,30.81-31.25c0.15,0,0.29,0,0.44,0c0.15,0,0.29,0,0.44,0
		C67.5,47.12,81.25,61.01,81.25,78.13z"/>
	<path display="inline" fill="#84C3BA" d="M65.63,31.25c0,8.63-7,15.63-15.63,15.63c-1.35,0-2.66-0.17-3.9-0.49
		c6.74-1.74,11.72-7.85,11.72-15.13s-4.98-13.4-11.72-15.13c1.25-0.32,2.56-0.49,3.9-0.49C58.63,15.63,65.63,22.62,65.63,31.25z"/>
	<path display="inline" fill="#98D7CE" d="M81.25,78.13c0,2.63-0.33,5.19-0.94,7.63C72.14,92.69,61.56,96.88,50,96.88
		c-1.32,0-2.62-0.05-3.91-0.16c10.03-0.83,19.16-4.81,26.4-10.96c0.61-2.44,0.94-5,0.94-7.63c0-15.94-11.93-29.09-27.34-31.01
		c1.14-0.14,2.29-0.22,3.46-0.24c0.15,0,0.29,0,0.44,0c0.15,0,0.29,0,0.44,0C67.5,47.12,81.25,61.01,81.25,78.13z"/>
	<path display="inline" d="M85.36,14.64C75.91,5.2,63.36,0,50,0S24.09,5.2,14.64,14.64S0,36.64,0,50c0,11.79,4.18,23.23,11.77,32.23
		c1.78,2.11,3.74,4.08,5.83,5.86c0,0,0,0,0,0c0.02,0.02,0.04,0.04,0.07,0.06C26.68,95.79,38.16,100,50,100s23.32-4.21,32.33-11.86
		c2.12-1.8,4.1-3.78,5.9-5.91C95.82,73.23,100,61.79,100,50C100,36.64,94.8,24.09,85.36,14.64L85.36,14.64z M22.5,84.03
		c-0.41-1.93-0.62-3.91-0.62-5.9c0-15.29,12.43-27.9,27.71-28.12L50,50l0.41,0c15.28,0.22,27.71,12.83,27.71,28.12
		c0,1.99-0.21,3.97-0.62,5.9c-7.76,6.28-17.48,9.72-27.5,9.72C39.98,93.75,30.26,90.3,22.5,84.03L22.5,84.03z M50,43.75
		c-6.89,0-12.5-5.61-12.5-12.5s5.61-12.5,12.5-12.5s12.5,5.61,12.5,12.5S56.89,43.75,50,43.75L50,43.75z M84.36,77.09
		c-0.26-8.71-3.75-16.88-9.89-23.11c-3.63-3.68-7.95-6.44-12.68-8.16c4.24-3.44,6.96-8.69,6.96-14.57
		c0-10.34-8.41-18.75-18.75-18.75s-18.75,8.41-18.75,18.75c0,5.88,2.72,11.13,6.96,14.57c-4.72,1.72-9.05,4.48-12.68,8.16
		c-6.15,6.23-9.63,14.4-9.89,23.11C9.58,69.4,6.25,59.83,6.25,50C6.25,25.88,25.88,6.25,50,6.25S93.75,25.88,93.75,50
		C93.75,59.84,90.42,69.4,84.36,77.09z"/>
</g>
<g display="none">
	<g display="inline">
		<g>
			
				<linearGradient id="SVGID_1_" gradientUnits="userSpaceOnUse" x1="50" y1="2" x2="50" y2="102" gradientTransform="matrix(1 0 0 -1 0 102)">
				<stop  offset="0" style="stop-color:#FD5900"/>
				<stop  offset="1" style="stop-color:#FFDE00"/>
			</linearGradient>
			<path fill="url(#SVGID_1_)" d="M50,0C22.54,0,0,22.54,0,50c0,9.56,2.89,18.79,8.01,26.79l-7.8,19.19
				c-0.43,1.09-0.18,2.33,0.65,3.16c0.82,0.82,2.05,1.09,3.16,0.65l19.19-7.8c8,5.12,17.23,8.01,26.79,8.01c27.46,0,50-22.54,50-50
				S77.46,0,50,0L50,0z"/>
		</g>
	</g>
	<g display="inline">
		<g>
			
				<linearGradient id="SVGID_2_" gradientUnits="userSpaceOnUse" x1="49.9998" y1="43.2107" x2="49.9998" y2="60.7889" gradientTransform="matrix(1 0 0 -1 0 102)">
				<stop  offset="0" style="stop-color:#FFE59A"/>
				<stop  offset="1" style="stop-color:#FFFFD5"/>
			</linearGradient>
			<path fill="url(#SVGID_2_)" d="M50,41.21c-4.85,0-8.79,3.94-8.79,8.79s3.94,8.79,8.79,8.79c4.85,0,8.79-3.94,8.79-8.79
				S54.85,41.21,50,41.21L50,41.21z M26.56,41.21c-4.85,0-8.79,3.94-8.79,8.79s3.94,8.79,8.79,8.79s8.79-3.94,8.79-8.79
				S31.41,41.21,26.56,41.21z M73.44,41.21c-4.85,0-8.79,3.94-8.79,8.79s3.94,8.79,8.79,8.79c4.85,0,8.79-3.94,8.79-8.79
				S78.28,41.21,73.44,41.21z"/>
		</g>
	</g>
</g>
<g>
	<path fill="#FFC107" d="M99.27,16.75c-0.59-0.71-1.47-1.12-2.4-1.12H21c-0.97,0-1.89,0.45-2.48,1.22
		c-0.59,0.77-0.79,1.77-0.54,2.71l10,37.37c0.37,1.37,1.61,2.32,3.02,2.32c0.05,0,0.11,0,0.16-0.01l59.62-3
		c1.44-0.08,2.66-1.13,2.92-2.56l6.25-34.37C100.12,18.39,99.87,17.46,99.27,16.75z"/>
	<g>
		<path fill="#FAFAFA" d="M78.12,46.88c-1.72,0-3.12-1.4-3.12-3.12v-12.5c0-1.72,1.4-3.12,3.12-3.12c1.72,0,3.12,1.4,3.12,3.12v12.5
			C81.25,45.48,79.85,46.88,78.12,46.88z"/>
		<path fill="#FAFAFA" d="M59.37,46.88c-1.72,0-3.12-1.4-3.12-3.12v-12.5c0-1.72,1.4-3.12,3.12-3.12s3.12,1.4,3.12,3.12v12.5
			C62.5,45.48,61.1,46.88,59.37,46.88z"/>
		<path fill="#FAFAFA" d="M40.62,46.88c-1.72,0-3.12-1.4-3.12-3.12v-12.5c0-1.72,1.4-3.12,3.12-3.12s3.12,1.4,3.12,3.12v12.5
			C43.75,45.48,42.35,46.88,40.62,46.88z"/>
	</g>
	<g>
		<circle fill="#455A64" cx="40.62" cy="87.5" r="9.37"/>
		<circle fill="#455A64" cx="78.12" cy="87.5" r="9.37"/>
		<path fill="#455A64" d="M84.37,71.87h-50c-1.42,0-2.66-0.95-3.02-2.32L15.29,9.38H3.12C1.4,9.38,0,7.98,0,6.25s1.4-3.12,3.12-3.12
			h14.56c1.42,0,2.66,0.95,3.02,2.32l16.07,60.18h47.6c1.72,0,3.12,1.4,3.12,3.12C87.5,70.47,86.1,71.87,84.37,71.87z"/>
	</g>
</g>
</svg>
